<svg width="271" height="150" viewBox="0 0 271 150" fill="none" xmlns="http://www.w3.org/2000/svg">
<path d="M11.7443 136.182C11.6676 135.534 11.3565 135.031 10.8111 134.673C10.2656 134.315 9.59659 134.136 8.80398 134.136C8.22443 134.136 7.71733 134.23 7.28267 134.418C6.85227 134.605 6.51563 134.863 6.27273 135.191C6.03409 135.519 5.91477 135.892 5.91477 136.31C5.91477 136.659 5.99787 136.96 6.16406 137.211C6.33452 137.458 6.55185 137.665 6.81605 137.831C7.08026 137.993 7.35724 138.127 7.64702 138.234C7.93679 138.336 8.20312 138.419 8.44602 138.483L9.77557 138.841C10.1165 138.93 10.4957 139.054 10.9134 139.212C11.3352 139.369 11.7379 139.585 12.1214 139.857C12.5092 140.126 12.8288 140.471 13.0803 140.893C13.3317 141.315 13.4574 141.832 13.4574 142.446C13.4574 143.153 13.272 143.793 12.9013 144.364C12.5348 144.935 11.9979 145.388 11.2905 145.725C10.5874 146.062 9.73295 146.23 8.72727 146.23C7.78977 146.23 6.97798 146.079 6.2919 145.776C5.61009 145.474 5.07315 145.052 4.68111 144.511C4.29332 143.969 4.07386 143.341 4.02273 142.625H5.65909C5.7017 143.119 5.8679 143.528 6.15767 143.852C6.4517 144.172 6.82244 144.411 7.26989 144.568C7.72159 144.722 8.20739 144.798 8.72727 144.798C9.33239 144.798 9.87571 144.7 10.3572 144.504C10.8388 144.304 11.2202 144.027 11.5014 143.673C11.7827 143.315 11.9233 142.898 11.9233 142.42C11.9233 141.986 11.8018 141.632 11.5589 141.359C11.3161 141.087 10.9964 140.865 10.6001 140.695C10.2038 140.524 9.77557 140.375 9.31534 140.247L7.70455 139.787C6.68182 139.493 5.87216 139.073 5.27557 138.528C4.67898 137.982 4.38068 137.268 4.38068 136.386C4.38068 135.653 4.57884 135.014 4.97514 134.469C5.37571 133.919 5.91264 133.493 6.58594 133.19C7.26349 132.884 8.01989 132.73 8.85511 132.73C9.69886 132.73 10.4489 132.881 11.1051 133.184C11.7614 133.482 12.2813 133.891 12.6648 134.411C13.0526 134.931 13.2571 135.521 13.2784 136.182H11.7443ZM19.9757 146.205C19.0297 146.205 18.2136 145.996 17.5275 145.578C16.8457 145.156 16.3194 144.568 15.9487 143.814C15.5822 143.055 15.399 142.173 15.399 141.168C15.399 140.162 15.5822 139.276 15.9487 138.509C16.3194 137.737 16.835 137.136 17.4956 136.706C18.1603 136.271 18.9359 136.054 19.8223 136.054C20.3336 136.054 20.8386 136.139 21.3372 136.31C21.8358 136.48 22.2896 136.757 22.6987 137.141C23.1078 137.52 23.4338 138.023 23.6767 138.649C23.9196 139.276 24.041 140.047 24.041 140.963V141.602H16.4728V140.298H22.5069C22.5069 139.744 22.3961 139.25 22.1745 138.815C21.9572 138.381 21.6461 138.038 21.2413 137.786C20.8407 137.535 20.3677 137.409 19.8223 137.409C19.2214 137.409 18.7015 137.558 18.2626 137.857C17.8279 138.151 17.4934 138.534 17.2591 139.007C17.0247 139.48 16.9075 139.987 16.9075 140.528V141.398C16.9075 142.139 17.0353 142.768 17.291 143.283C17.551 143.795 17.911 144.185 18.3713 144.453C18.8315 144.717 19.3663 144.849 19.9757 144.849C20.372 144.849 20.7299 144.794 21.0495 144.683C21.3734 144.568 21.6525 144.398 21.8869 144.172C22.1213 143.942 22.3024 143.656 22.4302 143.315L23.8876 143.724C23.7342 144.219 23.4764 144.653 23.1142 145.028C22.752 145.399 22.3045 145.689 21.7718 145.898C21.2392 146.102 20.6404 146.205 19.9757 146.205ZM27.8443 132.909V146H26.3358V132.909H27.8443ZM34.7237 146.205C33.7777 146.205 32.9616 145.996 32.2756 145.578C31.5938 145.156 31.0675 144.568 30.6967 143.814C30.3303 143.055 30.147 142.173 30.147 141.168C30.147 140.162 30.3303 139.276 30.6967 138.509C31.0675 137.737 31.5831 137.136 32.2436 136.706C32.9084 136.271 33.6839 136.054 34.5703 136.054C35.0817 136.054 35.5866 136.139 36.0852 136.31C36.5838 136.48 37.0376 136.757 37.4467 137.141C37.8558 137.52 38.1818 138.023 38.4247 138.649C38.6676 139.276 38.7891 140.047 38.7891 140.963V141.602H31.2209V140.298H37.255C37.255 139.744 37.1442 139.25 36.9226 138.815C36.7053 138.381 36.3942 138.038 35.9893 137.786C35.5888 137.535 35.1158 137.409 34.5703 137.409C33.9695 137.409 33.4496 137.558 33.0107 137.857C32.576 138.151 32.2415 138.534 32.0071 139.007C31.7727 139.48 31.6555 139.987 31.6555 140.528V141.398C31.6555 142.139 31.7834 142.768 32.0391 143.283C32.299 143.795 32.6591 144.185 33.1193 144.453C33.5795 144.717 34.1143 144.849 34.7237 144.849C35.12 144.849 35.478 144.794 35.7976 144.683C36.1214 144.568 36.4006 144.398 36.6349 144.172C36.8693 143.942 37.0504 143.656 37.1783 143.315L38.6357 143.724C38.4822 144.219 38.2244 144.653 37.8622 145.028C37.5 145.399 37.0526 145.689 36.5199 145.898C35.9872 146.102 35.3885 146.205 34.7237 146.205ZM45.0724 146.205C44.152 146.205 43.3594 145.987 42.6946 145.553C42.0298 145.118 41.5185 144.519 41.1605 143.756C40.8026 142.994 40.6236 142.122 40.6236 141.142C40.6236 140.145 40.8068 139.265 41.1733 138.502C41.544 137.735 42.0597 137.136 42.7202 136.706C43.3849 136.271 44.1605 136.054 45.0469 136.054C45.7372 136.054 46.3594 136.182 46.9134 136.438C47.4673 136.693 47.9212 137.051 48.2749 137.511C48.6286 137.972 48.848 138.509 48.9332 139.122H47.4247C47.3097 138.675 47.054 138.278 46.6577 137.933C46.2656 137.584 45.7372 137.409 45.0724 137.409C44.4844 137.409 43.9688 137.562 43.5256 137.869C43.0866 138.172 42.7436 138.6 42.4964 139.154C42.2536 139.704 42.1321 140.349 42.1321 141.091C42.1321 141.849 42.2514 142.51 42.4901 143.072C42.733 143.635 43.0739 144.072 43.5128 144.383C43.956 144.694 44.4759 144.849 45.0724 144.849C45.4645 144.849 45.8203 144.781 46.1399 144.645C46.4595 144.509 46.7301 144.312 46.9517 144.057C47.1733 143.801 47.331 143.494 47.4247 143.136H48.9332C48.848 143.716 48.6371 144.238 48.3004 144.702C47.968 145.163 47.527 145.529 46.9773 145.802C46.4318 146.07 45.7969 146.205 45.0724 146.205ZM55.4084 136.182V137.46H50.3203V136.182H55.4084ZM51.8033 133.83H53.3118V143.188C53.3118 143.614 53.3736 143.933 53.4972 144.146C53.625 144.355 53.7869 144.496 53.983 144.568C54.1832 144.636 54.3942 144.67 54.6158 144.67C54.782 144.67 54.9183 144.662 55.0249 144.645C55.1314 144.624 55.2166 144.607 55.2805 144.594L55.5874 145.949C55.4851 145.987 55.3423 146.026 55.1591 146.064C54.9759 146.107 54.7436 146.128 54.4624 146.128C54.0362 146.128 53.6186 146.036 53.2095 145.853C52.8047 145.67 52.468 145.391 52.1996 145.016C51.9354 144.641 51.8033 144.168 51.8033 143.597V133.83ZM65.6293 146.23C65.0071 146.23 64.4425 146.113 63.9354 145.879C63.4283 145.64 63.0256 145.297 62.7273 144.849C62.429 144.398 62.2798 143.852 62.2798 143.213C62.2798 142.651 62.3906 142.195 62.6122 141.845C62.8338 141.491 63.13 141.214 63.5007 141.014C63.8714 140.814 64.2805 140.665 64.728 140.567C65.1797 140.464 65.6335 140.384 66.0895 140.324C66.6861 140.247 67.1697 140.19 67.5405 140.151C67.9155 140.109 68.1882 140.038 68.3587 139.94C68.5334 139.842 68.6207 139.672 68.6207 139.429V139.378C68.6207 138.747 68.4482 138.257 68.103 137.908C67.7621 137.558 67.2443 137.384 66.5497 137.384C65.8295 137.384 65.2649 137.541 64.8558 137.857C64.4467 138.172 64.1591 138.509 63.9929 138.866L62.5611 138.355C62.8168 137.759 63.1577 137.294 63.5838 136.962C64.0142 136.625 64.483 136.391 64.9901 136.259C65.5014 136.122 66.0043 136.054 66.4986 136.054C66.8139 136.054 67.1761 136.092 67.5852 136.169C67.9986 136.241 68.397 136.393 68.7805 136.623C69.1683 136.853 69.4901 137.2 69.7457 137.665C70.0014 138.129 70.1293 138.751 70.1293 139.531V146H68.6207V144.67H68.544C68.4418 144.884 68.2713 145.112 68.0327 145.354C67.794 145.597 67.4766 145.804 67.0803 145.974C66.6839 146.145 66.2003 146.23 65.6293 146.23ZM65.8594 144.875C66.456 144.875 66.9588 144.758 67.3679 144.523C67.7813 144.289 68.0923 143.987 68.3011 143.616C68.5142 143.245 68.6207 142.855 68.6207 142.446V141.065C68.5568 141.142 68.4162 141.212 68.1989 141.276C67.9858 141.336 67.7386 141.389 67.4574 141.436C67.1804 141.479 66.9098 141.517 66.6456 141.551C66.3857 141.581 66.1747 141.607 66.0128 141.628C65.6207 141.679 65.2543 141.762 64.9134 141.877C64.5767 141.988 64.304 142.156 64.0952 142.382C63.8906 142.604 63.7884 142.906 63.7884 143.29C63.7884 143.814 63.9822 144.21 64.37 144.479C64.7621 144.743 65.2585 144.875 65.8594 144.875ZM84.8997 138.381L83.5446 138.764C83.4593 138.538 83.3336 138.319 83.1674 138.106C83.0055 137.888 82.7839 137.71 82.5027 137.569C82.2214 137.428 81.8613 137.358 81.4224 137.358C80.8216 137.358 80.3208 137.496 79.9203 137.773C79.524 138.046 79.3258 138.393 79.3258 138.815C79.3258 139.19 79.4622 139.487 79.7349 139.704C80.0076 139.921 80.4338 140.102 81.0133 140.247L82.4707 140.605C83.3485 140.818 84.0027 141.144 84.4331 141.583C84.8635 142.018 85.0787 142.578 85.0787 143.264C85.0787 143.827 84.9167 144.33 84.5929 144.773C84.2733 145.216 83.8258 145.565 83.2505 145.821C82.6752 146.077 82.0062 146.205 81.2434 146.205C80.242 146.205 79.4132 145.987 78.7569 145.553C78.1007 145.118 77.6852 144.483 77.5105 143.648L78.9423 143.29C79.0787 143.818 79.3365 144.214 79.7157 144.479C80.0993 144.743 80.6 144.875 81.2179 144.875C81.921 144.875 82.4792 144.726 82.8926 144.428C83.3102 144.125 83.519 143.763 83.519 143.341C83.519 143 83.3997 142.714 83.161 142.484C82.9224 142.25 82.5559 142.075 82.0616 141.96L80.4252 141.577C79.5261 141.364 78.8656 141.033 78.4437 140.586C78.0261 140.134 77.8173 139.57 77.8173 138.892C77.8173 138.338 77.9728 137.848 78.2839 137.422C78.5993 136.996 79.0275 136.661 79.5687 136.418C80.1142 136.175 80.7321 136.054 81.4224 136.054C82.394 136.054 83.1568 136.267 83.7108 136.693C84.269 137.119 84.6653 137.682 84.8997 138.381ZM91.4659 146.205C90.5199 146.205 89.7038 145.996 89.0178 145.578C88.3359 145.156 87.8097 144.568 87.4389 143.814C87.0724 143.055 86.8892 142.173 86.8892 141.168C86.8892 140.162 87.0724 139.276 87.4389 138.509C87.8097 137.737 88.3253 137.136 88.9858 136.706C89.6506 136.271 90.4261 136.054 91.3125 136.054C91.8239 136.054 92.3288 136.139 92.8274 136.31C93.326 136.48 93.7798 136.757 94.1889 137.141C94.598 137.52 94.924 138.023 95.1669 138.649C95.4098 139.276 95.5312 140.047 95.5312 140.963V141.602H87.9631V140.298H93.9972C93.9972 139.744 93.8864 139.25 93.6648 138.815C93.4474 138.381 93.1364 138.038 92.7315 137.786C92.331 137.535 91.858 137.409 91.3125 137.409C90.7116 137.409 90.1918 137.558 89.7528 137.857C89.3182 138.151 88.9837 138.534 88.7493 139.007C88.5149 139.48 88.3977 139.987 88.3977 140.528V141.398C88.3977 142.139 88.5256 142.768 88.7812 143.283C89.0412 143.795 89.4013 144.185 89.8615 144.453C90.3217 144.717 90.8565 144.849 91.4659 144.849C91.8622 144.849 92.2202 144.794 92.5398 144.683C92.8636 144.568 93.1428 144.398 93.3771 144.172C93.6115 143.942 93.7926 143.656 93.9205 143.315L95.3778 143.724C95.2244 144.219 94.9666 144.653 94.6044 145.028C94.2422 145.399 93.7947 145.689 93.2621 145.898C92.7294 146.102 92.1307 146.205 91.4659 146.205ZM104.781 138.381L103.425 138.764C103.34 138.538 103.214 138.319 103.048 138.106C102.886 137.888 102.665 137.71 102.384 137.569C102.102 137.428 101.742 137.358 101.303 137.358C100.702 137.358 100.202 137.496 99.8011 137.773C99.4048 138.046 99.2067 138.393 99.2067 138.815C99.2067 139.19 99.343 139.487 99.6158 139.704C99.8885 139.921 100.315 140.102 100.894 140.247L102.352 140.605C103.229 140.818 103.884 141.144 104.314 141.583C104.744 142.018 104.96 142.578 104.96 143.264C104.96 143.827 104.798 144.33 104.474 144.773C104.154 145.216 103.707 145.565 103.131 145.821C102.556 146.077 101.887 146.205 101.124 146.205C100.123 146.205 99.294 145.987 98.6378 145.553C97.9815 145.118 97.5661 144.483 97.3913 143.648L98.8232 143.29C98.9595 143.818 99.2173 144.214 99.5966 144.479C99.9801 144.743 100.481 144.875 101.099 144.875C101.802 144.875 102.36 144.726 102.773 144.428C103.191 144.125 103.4 143.763 103.4 143.341C103.4 143 103.281 142.714 103.042 142.484C102.803 142.25 102.437 142.075 101.942 141.96L100.306 141.577C99.407 141.364 98.7464 141.033 98.3246 140.586C97.907 140.134 97.6982 139.57 97.6982 138.892C97.6982 138.338 97.8537 137.848 98.1648 137.422C98.4801 136.996 98.9084 136.661 99.4496 136.418C99.995 136.175 100.613 136.054 101.303 136.054C102.275 136.054 103.038 136.267 103.592 136.693C104.15 137.119 104.546 137.682 104.781 138.381ZM114.185 138.381L112.83 138.764C112.744 138.538 112.619 138.319 112.453 138.106C112.291 137.888 112.069 137.71 111.788 137.569C111.507 137.428 111.146 137.358 110.708 137.358C110.107 137.358 109.606 137.496 109.205 137.773C108.809 138.046 108.611 138.393 108.611 138.815C108.611 139.19 108.747 139.487 109.02 139.704C109.293 139.921 109.719 140.102 110.298 140.247L111.756 140.605C112.634 140.818 113.288 141.144 113.718 141.583C114.149 142.018 114.364 142.578 114.364 143.264C114.364 143.827 114.202 144.33 113.878 144.773C113.558 145.216 113.111 145.565 112.536 145.821C111.96 146.077 111.291 146.205 110.529 146.205C109.527 146.205 108.698 145.987 108.042 145.553C107.386 145.118 106.97 144.483 106.796 143.648L108.227 143.29C108.364 143.818 108.622 144.214 109.001 144.479C109.384 144.743 109.885 144.875 110.503 144.875C111.206 144.875 111.764 144.726 112.178 144.428C112.595 144.125 112.804 143.763 112.804 143.341C112.804 143 112.685 142.714 112.446 142.484C112.208 142.25 111.841 142.075 111.347 141.96L109.71 141.577C108.811 141.364 108.151 141.033 107.729 140.586C107.311 140.134 107.102 139.57 107.102 138.892C107.102 138.338 107.258 137.848 107.569 137.422C107.884 136.996 108.313 136.661 108.854 136.418C109.399 136.175 110.017 136.054 110.708 136.054C111.679 136.054 112.442 136.267 112.996 136.693C113.554 137.119 113.95 137.682 114.185 138.381ZM116.635 146V136.182H118.143V146H116.635ZM117.402 134.545C117.108 134.545 116.854 134.445 116.641 134.245C116.432 134.045 116.328 133.804 116.328 133.523C116.328 133.241 116.432 133.001 116.641 132.8C116.854 132.6 117.108 132.5 117.402 132.5C117.696 132.5 117.947 132.6 118.156 132.8C118.369 133.001 118.475 133.241 118.475 133.523C118.475 133.804 118.369 134.045 118.156 134.245C117.947 134.445 117.696 134.545 117.402 134.545ZM124.895 146.205C124.008 146.205 123.231 145.994 122.562 145.572C121.897 145.15 121.377 144.56 121.002 143.801C120.631 143.043 120.446 142.156 120.446 141.142C120.446 140.119 120.631 139.227 121.002 138.464C121.377 137.701 121.897 137.109 122.562 136.687C123.231 136.265 124.008 136.054 124.895 136.054C125.781 136.054 126.557 136.265 127.221 136.687C127.89 137.109 128.41 137.701 128.781 138.464C129.156 139.227 129.344 140.119 129.344 141.142C129.344 142.156 129.156 143.043 128.781 143.801C128.41 144.56 127.89 145.15 127.221 145.572C126.557 145.994 125.781 146.205 124.895 146.205ZM124.895 144.849C125.568 144.849 126.122 144.677 126.557 144.332C126.991 143.987 127.313 143.533 127.522 142.97C127.731 142.408 127.835 141.798 127.835 141.142C127.835 140.486 127.731 139.874 127.522 139.308C127.313 138.741 126.991 138.283 126.557 137.933C126.122 137.584 125.568 137.409 124.895 137.409C124.221 137.409 123.667 137.584 123.233 137.933C122.798 138.283 122.476 138.741 122.268 139.308C122.059 139.874 121.954 140.486 121.954 141.142C121.954 141.798 122.059 142.408 122.268 142.97C122.476 143.533 122.798 143.987 123.233 144.332C123.667 144.677 124.221 144.849 124.895 144.849ZM133.155 140.094V146H131.646V136.182H133.104V137.716H133.232C133.462 137.217 133.811 136.817 134.28 136.514C134.749 136.207 135.354 136.054 136.095 136.054C136.76 136.054 137.342 136.19 137.84 136.463C138.339 136.732 138.727 137.141 139.004 137.69C139.281 138.236 139.419 138.926 139.419 139.761V146H137.911V139.864C137.911 139.092 137.71 138.491 137.31 138.061C136.909 137.626 136.359 137.409 135.661 137.409C135.179 137.409 134.749 137.513 134.369 137.722C133.994 137.931 133.698 138.236 133.481 138.636C133.263 139.037 133.155 139.523 133.155 140.094ZM151.508 136.182V137.46H146.42V136.182H151.508ZM147.903 133.83H149.411V143.188C149.411 143.614 149.473 143.933 149.597 144.146C149.725 144.355 149.887 144.496 150.083 144.568C150.283 144.636 150.494 144.67 150.715 144.67C150.882 144.67 151.018 144.662 151.124 144.645C151.231 144.624 151.316 144.607 151.38 144.594L151.687 145.949C151.585 145.987 151.442 146.026 151.259 146.064C151.075 146.107 150.843 146.128 150.562 146.128C150.136 146.128 149.718 146.036 149.309 145.853C148.904 145.67 148.568 145.391 148.299 145.016C148.035 144.641 147.903 144.168 147.903 143.597V133.83ZM157.66 146.205C156.774 146.205 155.996 145.994 155.327 145.572C154.662 145.15 154.143 144.56 153.768 143.801C153.397 143.043 153.211 142.156 153.211 141.142C153.211 140.119 153.397 139.227 153.768 138.464C154.143 137.701 154.662 137.109 155.327 136.687C155.996 136.265 156.774 136.054 157.66 136.054C158.547 136.054 159.322 136.265 159.987 136.687C160.656 137.109 161.176 137.701 161.547 138.464C161.922 139.227 162.109 140.119 162.109 141.142C162.109 142.156 161.922 143.043 161.547 143.801C161.176 144.56 160.656 145.15 159.987 145.572C159.322 145.994 158.547 146.205 157.66 146.205ZM157.66 144.849C158.334 144.849 158.888 144.677 159.322 144.332C159.757 143.987 160.079 143.533 160.287 142.97C160.496 142.408 160.601 141.798 160.601 141.142C160.601 140.486 160.496 139.874 160.287 139.308C160.079 138.741 159.757 138.283 159.322 137.933C158.888 137.584 158.334 137.409 157.66 137.409C156.987 137.409 156.433 137.584 155.998 137.933C155.564 138.283 155.242 138.741 155.033 139.308C154.824 139.874 154.72 140.486 154.72 141.142C154.72 141.798 154.824 142.408 155.033 142.97C155.242 143.533 155.564 143.987 155.998 144.332C156.433 144.677 156.987 144.849 157.66 144.849ZM173.438 149.886C172.709 149.886 172.082 149.793 171.558 149.605C171.034 149.422 170.597 149.179 170.248 148.876C169.903 148.578 169.628 148.259 169.423 147.918L170.625 147.074C170.761 147.253 170.934 147.457 171.143 147.688C171.352 147.922 171.637 148.124 171.999 148.295C172.366 148.469 172.845 148.557 173.438 148.557C174.23 148.557 174.884 148.365 175.4 147.982C175.915 147.598 176.173 146.997 176.173 146.179V144.185H176.045C175.935 144.364 175.777 144.585 175.572 144.849C175.372 145.109 175.082 145.342 174.703 145.546C174.328 145.746 173.821 145.847 173.182 145.847C172.389 145.847 171.678 145.659 171.047 145.284C170.42 144.909 169.924 144.364 169.558 143.648C169.195 142.932 169.014 142.062 169.014 141.04C169.014 140.034 169.191 139.158 169.545 138.413C169.898 137.663 170.391 137.083 171.021 136.674C171.652 136.261 172.381 136.054 173.207 136.054C173.847 136.054 174.354 136.161 174.729 136.374C175.108 136.582 175.398 136.821 175.598 137.089C175.803 137.354 175.96 137.571 176.071 137.741H176.224V136.182H177.682V146.281C177.682 147.125 177.49 147.811 177.107 148.339C176.727 148.872 176.216 149.262 175.572 149.509C174.933 149.761 174.222 149.886 173.438 149.886ZM173.386 144.491C173.991 144.491 174.503 144.353 174.92 144.076C175.338 143.799 175.656 143.401 175.873 142.881C176.09 142.361 176.199 141.739 176.199 141.014C176.199 140.307 176.092 139.683 175.879 139.141C175.666 138.6 175.351 138.176 174.933 137.869C174.516 137.562 174 137.409 173.386 137.409C172.747 137.409 172.214 137.571 171.788 137.895C171.366 138.219 171.049 138.653 170.836 139.199C170.627 139.744 170.523 140.349 170.523 141.014C170.523 141.696 170.629 142.299 170.842 142.823C171.06 143.343 171.379 143.752 171.801 144.05C172.227 144.344 172.756 144.491 173.386 144.491ZM184.56 146.205C183.614 146.205 182.798 145.996 182.112 145.578C181.43 145.156 180.903 144.568 180.533 143.814C180.166 143.055 179.983 142.173 179.983 141.168C179.983 140.162 180.166 139.276 180.533 138.509C180.903 137.737 181.419 137.136 182.08 136.706C182.744 136.271 183.52 136.054 184.406 136.054C184.918 136.054 185.423 136.139 185.921 136.31C186.42 136.48 186.874 136.757 187.283 137.141C187.692 137.52 188.018 138.023 188.261 138.649C188.504 139.276 188.625 140.047 188.625 140.963V141.602H181.057V140.298H187.091C187.091 139.744 186.98 139.25 186.759 138.815C186.541 138.381 186.23 138.038 185.825 137.786C185.425 137.535 184.952 137.409 184.406 137.409C183.805 137.409 183.286 137.558 182.847 137.857C182.412 138.151 182.077 138.534 181.843 139.007C181.609 139.48 181.491 139.987 181.491 140.528V141.398C181.491 142.139 181.619 142.768 181.875 143.283C182.135 143.795 182.495 144.185 182.955 144.453C183.415 144.717 183.95 144.849 184.56 144.849C184.956 144.849 185.314 144.794 185.634 144.683C185.957 144.568 186.237 144.398 186.471 144.172C186.705 143.942 186.886 143.656 187.014 143.315L188.472 143.724C188.318 144.219 188.06 144.653 187.698 145.028C187.336 145.399 186.888 145.689 186.356 145.898C185.823 146.102 185.224 146.205 184.56 146.205ZM195.19 136.182V137.46H190.102V136.182H195.19ZM191.585 133.83H193.093V143.188C193.093 143.614 193.155 143.933 193.278 144.146C193.406 144.355 193.568 144.496 193.764 144.568C193.964 144.636 194.175 144.67 194.397 144.67C194.563 144.67 194.7 144.662 194.806 144.645C194.913 144.624 194.998 144.607 195.062 144.594L195.369 145.949C195.266 145.987 195.124 146.026 194.94 146.064C194.757 146.107 194.525 146.128 194.244 146.128C193.817 146.128 193.4 146.036 192.991 145.853C192.586 145.67 192.249 145.391 191.981 145.016C191.717 144.641 191.585 144.168 191.585 143.597V133.83ZM209.476 138.381L208.121 138.764C208.036 138.538 207.91 138.319 207.744 138.106C207.582 137.888 207.36 137.71 207.079 137.569C206.798 137.428 206.438 137.358 205.999 137.358C205.398 137.358 204.897 137.496 204.496 137.773C204.1 138.046 203.902 138.393 203.902 138.815C203.902 139.19 204.038 139.487 204.311 139.704C204.584 139.921 205.01 140.102 205.589 140.247L207.047 140.605C207.925 140.818 208.579 141.144 209.009 141.583C209.44 142.018 209.655 142.578 209.655 143.264C209.655 143.827 209.493 144.33 209.169 144.773C208.849 145.216 208.402 145.565 207.827 145.821C207.251 146.077 206.582 146.205 205.82 146.205C204.818 146.205 203.989 145.987 203.333 145.553C202.677 145.118 202.261 144.483 202.087 143.648L203.518 143.29C203.655 143.818 203.913 144.214 204.292 144.479C204.675 144.743 205.176 144.875 205.794 144.875C206.497 144.875 207.055 144.726 207.469 144.428C207.886 144.125 208.095 143.763 208.095 143.341C208.095 143 207.976 142.714 207.737 142.484C207.499 142.25 207.132 142.075 206.638 141.96L205.001 141.577C204.102 141.364 203.442 141.033 203.02 140.586C202.602 140.134 202.393 139.57 202.393 138.892C202.393 138.338 202.549 137.848 202.86 137.422C203.175 136.996 203.604 136.661 204.145 136.418C204.69 136.175 205.308 136.054 205.999 136.054C206.97 136.054 207.733 136.267 208.287 136.693C208.845 137.119 209.241 137.682 209.476 138.381ZM216.195 136.182V137.46H211.107V136.182H216.195ZM212.59 133.83H214.099V143.188C214.099 143.614 214.161 143.933 214.284 144.146C214.412 144.355 214.574 144.496 214.77 144.568C214.97 144.636 215.181 144.67 215.403 144.67C215.569 144.67 215.705 144.662 215.812 144.645C215.919 144.624 216.004 144.607 216.068 144.594L216.374 145.949C216.272 145.987 216.129 146.026 215.946 146.064C215.763 146.107 215.531 146.128 215.249 146.128C214.823 146.128 214.406 146.036 213.997 145.853C213.592 145.67 213.255 145.391 212.987 145.016C212.722 144.641 212.59 144.168 212.59 143.597V133.83ZM221.354 146.23C220.732 146.23 220.167 146.113 219.66 145.879C219.153 145.64 218.75 145.297 218.452 144.849C218.154 144.398 218.004 143.852 218.004 143.213C218.004 142.651 218.115 142.195 218.337 141.845C218.558 141.491 218.855 141.214 219.225 141.014C219.596 140.814 220.005 140.665 220.453 140.567C220.904 140.464 221.358 140.384 221.814 140.324C222.411 140.247 222.894 140.19 223.265 140.151C223.64 140.109 223.913 140.038 224.083 139.94C224.258 139.842 224.345 139.672 224.345 139.429V139.378C224.345 138.747 224.173 138.257 223.828 137.908C223.487 137.558 222.969 137.384 222.274 137.384C221.554 137.384 220.99 137.541 220.58 137.857C220.171 138.172 219.884 138.509 219.718 138.866L218.286 138.355C218.541 137.759 218.882 137.294 219.308 136.962C219.739 136.625 220.208 136.391 220.715 136.259C221.226 136.122 221.729 136.054 222.223 136.054C222.539 136.054 222.901 136.092 223.31 136.169C223.723 136.241 224.122 136.393 224.505 136.623C224.893 136.853 225.215 137.2 225.47 137.665C225.726 138.129 225.854 138.751 225.854 139.531V146H224.345V144.67H224.269C224.166 144.884 223.996 145.112 223.757 145.354C223.519 145.597 223.201 145.804 222.805 145.974C222.409 146.145 221.925 146.23 221.354 146.23ZM221.584 144.875C222.181 144.875 222.683 144.758 223.093 144.523C223.506 144.289 223.817 143.987 224.026 143.616C224.239 143.245 224.345 142.855 224.345 142.446V141.065C224.281 141.142 224.141 141.212 223.923 141.276C223.71 141.336 223.463 141.389 223.182 141.436C222.905 141.479 222.634 141.517 222.37 141.551C222.11 141.581 221.899 141.607 221.737 141.628C221.345 141.679 220.979 141.762 220.638 141.877C220.301 141.988 220.029 142.156 219.82 142.382C219.615 142.604 219.513 142.906 219.513 143.29C219.513 143.814 219.707 144.21 220.095 144.479C220.487 144.743 220.983 144.875 221.584 144.875ZM228.607 146V136.182H230.065V137.665H230.167C230.346 137.179 230.67 136.785 231.138 136.482C231.607 136.18 232.136 136.028 232.724 136.028C232.835 136.028 232.973 136.031 233.139 136.035C233.305 136.039 233.431 136.045 233.516 136.054V137.588C233.465 137.575 233.348 137.556 233.165 137.531C232.986 137.501 232.796 137.486 232.596 137.486C232.119 137.486 231.692 137.586 231.317 137.786C230.947 137.982 230.653 138.255 230.435 138.604C230.222 138.95 230.116 139.344 230.116 139.787V146H228.607ZM240.19 136.182V137.46H235.102V136.182H240.19ZM236.585 133.83H238.093V143.188C238.093 143.614 238.155 143.933 238.278 144.146C238.406 144.355 238.568 144.496 238.764 144.568C238.964 144.636 239.175 144.67 239.397 144.67C239.563 144.67 239.7 144.662 239.806 144.645C239.913 144.624 239.998 144.607 240.062 144.594L240.369 145.949C240.266 145.987 240.124 146.026 239.94 146.064C239.757 146.107 239.525 146.128 239.244 146.128C238.817 146.128 238.4 146.036 237.991 145.853C237.586 145.67 237.249 145.391 236.981 145.016C236.717 144.641 236.585 144.168 236.585 143.597V133.83ZM246.47 146.205C245.524 146.205 244.708 145.996 244.022 145.578C243.34 145.156 242.814 144.568 242.443 143.814C242.076 143.055 241.893 142.173 241.893 141.168C241.893 140.162 242.076 139.276 242.443 138.509C242.814 137.737 243.329 137.136 243.99 136.706C244.654 136.271 245.43 136.054 246.316 136.054C246.828 136.054 247.333 136.139 247.831 136.31C248.33 136.48 248.784 136.757 249.193 137.141C249.602 137.52 249.928 138.023 250.171 138.649C250.414 139.276 250.535 140.047 250.535 140.963V141.602H242.967V140.298H249.001C249.001 139.744 248.89 139.25 248.669 138.815C248.451 138.381 248.14 138.038 247.735 137.786C247.335 137.535 246.862 137.409 246.316 137.409C245.716 137.409 245.196 137.558 244.757 137.857C244.322 138.151 243.988 138.534 243.753 139.007C243.519 139.48 243.402 139.987 243.402 140.528V141.398C243.402 142.139 243.529 142.768 243.785 143.283C244.045 143.795 244.405 144.185 244.865 144.453C245.326 144.717 245.86 144.849 246.47 144.849C246.866 144.849 247.224 144.794 247.544 144.683C247.868 144.568 248.147 144.398 248.381 144.172C248.615 143.942 248.797 143.656 248.924 143.315L250.382 143.724C250.228 144.219 249.971 144.653 249.608 145.028C249.246 145.399 248.799 145.689 248.266 145.898C247.733 146.102 247.135 146.205 246.47 146.205ZM256.537 146.205C255.719 146.205 254.997 145.998 254.37 145.585C253.744 145.167 253.254 144.579 252.9 143.82C252.547 143.058 252.37 142.156 252.37 141.116C252.37 140.085 252.547 139.19 252.9 138.432C253.254 137.673 253.746 137.087 254.377 136.674C255.007 136.261 255.736 136.054 256.563 136.054C257.202 136.054 257.707 136.161 258.078 136.374C258.453 136.582 258.738 136.821 258.934 137.089C259.135 137.354 259.29 137.571 259.401 137.741H259.529V132.909H261.037V146H259.58V144.491H259.401C259.29 144.67 259.132 144.896 258.928 145.169C258.723 145.437 258.431 145.678 258.052 145.891C257.673 146.1 257.168 146.205 256.537 146.205ZM256.742 144.849C257.347 144.849 257.858 144.692 258.276 144.376C258.694 144.057 259.011 143.616 259.228 143.053C259.446 142.487 259.554 141.832 259.554 141.091C259.554 140.358 259.448 139.717 259.235 139.167C259.022 138.613 258.706 138.183 258.289 137.876C257.871 137.565 257.355 137.409 256.742 137.409C256.103 137.409 255.57 137.573 255.144 137.901C254.722 138.225 254.404 138.666 254.191 139.224C253.983 139.778 253.878 140.401 253.878 141.091C253.878 141.79 253.985 142.425 254.198 142.996C254.415 143.562 254.735 144.014 255.157 144.351C255.583 144.683 256.111 144.849 256.742 144.849Z" fill="#3C8C71"/>
<path d="M178.27 4.99805H141.899C131.493 4.99805 123.057 13.434 123.057 23.8403V26.9983V59.1819C123.057 67.4439 129.754 74.1416 138.016 74.1416H182.713L214.121 74.1416C214.629 74.1416 214.777 73.4493 214.314 73.241L204.994 69.046C200.197 66.8871 197.113 62.1159 197.113 56.8557V39.5698V23.8403C197.113 13.434 188.677 4.99805 178.27 4.99805Z" fill="#3C8C71" stroke="#3C8C71" stroke-width="9" stroke-linecap="square"/>
<path d="M91.5362 29.5898H127.908C138.314 29.5898 146.75 38.0258 146.75 48.4321V51.5901V83.7737C146.75 92.0357 140.052 98.7334 131.79 98.7334H87.0937L55.6856 98.7334C55.1781 98.7334 55.0295 98.0411 55.4923 97.8328L64.8125 93.6378C69.6092 91.4789 72.6939 86.7077 72.6939 81.4475V64.1616V48.4321C72.6939 38.0258 81.1299 29.5898 91.5362 29.5898Z" stroke="#F3F9F6" stroke-width="22" stroke-linecap="square"/>
<path d="M91.8584 30.8867H126.865C136.881 30.8867 145 39.0061 145 49.0218V52.0613V83.037C145 90.989 138.554 97.4353 130.602 97.4353H87.5826L57.3533 97.4353C56.8648 97.4353 56.7217 96.769 57.1672 96.5685L66.1376 92.531C70.7543 90.4531 73.7233 85.8609 73.7233 80.7982V64.161V49.0218C73.7233 39.0061 81.8426 30.8867 91.8584 30.8867Z" fill="#F3F9F6" stroke="#3C8C71" stroke-width="11" stroke-linecap="square"/>
<path d="M41.5001 102.949C44.1234 102.949 46.2501 100.823 46.2501 98.1992C46.2501 95.5759 44.1234 93.4492 41.5001 93.4492V102.949ZM20.0215 93.4492H15.2715V102.949H20.0215V93.4492ZM41.5001 93.4492H20.0215V102.949H41.5001V93.4492Z" fill="#3C8C71"/>
<path d="M6.62111 102.949H11.3711V93.4492H6.62111V102.949ZM5.02148 93.4492C2.39813 93.4492 0.271484 95.5759 0.271484 98.1992C0.271484 100.823 2.39813 102.949 5.02148 102.949V93.4492ZM6.62111 93.4492H5.02148V102.949H6.62111V93.4492Z" fill="#3C8C71"/>
<path d="M229.021 78.9492C226.398 78.9492 224.271 76.8226 224.271 74.1992C224.271 71.5759 226.398 69.4492 229.021 69.4492V78.9492ZM250.5 69.4492H255.25V78.9492H250.5V69.4492ZM229.021 69.4492H250.5V78.9492H229.021V69.4492Z" fill="#3C8C71"/>
<path d="M263.9 78.9492H259.15V69.4492H263.9V78.9492ZM265.5 69.4492C268.123 69.4492 270.25 71.5759 270.25 74.1992C270.25 76.8226 268.123 78.9492 265.5 78.9492V69.4492ZM263.9 69.4492H265.5V78.9492H263.9V69.4492Z" fill="#3C8C71"/>
</svg>
