<svg width="272" height="150" viewBox="0 0 272 150" fill="none" xmlns="http://www.w3.org/2000/svg">
<path d="M12.7443 136.182C12.6676 135.534 12.3565 135.031 11.8111 134.673C11.2656 134.315 10.5966 134.136 9.80398 134.136C9.22443 134.136 8.71733 134.23 8.28267 134.418C7.85227 134.605 7.51563 134.863 7.27273 135.191C7.03409 135.519 6.91477 135.892 6.91477 136.31C6.91477 136.659 6.99787 136.96 7.16406 137.211C7.33452 137.458 7.55185 137.665 7.81605 137.831C8.08026 137.993 8.35724 138.127 8.64702 138.234C8.93679 138.336 9.20312 138.419 9.44602 138.483L10.7756 138.841C11.1165 138.93 11.4957 139.054 11.9134 139.212C12.3352 139.369 12.7379 139.585 13.1214 139.857C13.5092 140.126 13.8288 140.471 14.0803 140.893C14.3317 141.315 14.4574 141.832 14.4574 142.446C14.4574 143.153 14.272 143.793 13.9013 144.364C13.5348 144.935 12.9979 145.388 12.2905 145.725C11.5874 146.062 10.733 146.23 9.72727 146.23C8.78977 146.23 7.97798 146.079 7.2919 145.776C6.61009 145.474 6.07315 145.052 5.68111 144.511C5.29332 143.969 5.07386 143.341 5.02273 142.625H6.65909C6.7017 143.119 6.8679 143.528 7.15767 143.852C7.4517 144.172 7.82244 144.411 8.26989 144.568C8.72159 144.722 9.20739 144.798 9.72727 144.798C10.3324 144.798 10.8757 144.7 11.3572 144.504C11.8388 144.304 12.2202 144.027 12.5014 143.673C12.7827 143.315 12.9233 142.898 12.9233 142.42C12.9233 141.986 12.8018 141.632 12.5589 141.359C12.3161 141.087 11.9964 140.865 11.6001 140.695C11.2038 140.524 10.7756 140.375 10.3153 140.247L8.70455 139.787C7.68182 139.493 6.87216 139.073 6.27557 138.528C5.67898 137.982 5.38068 137.268 5.38068 136.386C5.38068 135.653 5.57884 135.014 5.97514 134.469C6.37571 133.919 6.91264 133.493 7.58594 133.19C8.26349 132.884 9.01989 132.73 9.85511 132.73C10.6989 132.73 11.4489 132.881 12.1051 133.184C12.7614 133.482 13.2813 133.891 13.6648 134.411C14.0526 134.931 14.2571 135.521 14.2784 136.182H12.7443ZM20.9757 146.205C20.0297 146.205 19.2136 145.996 18.5275 145.578C17.8457 145.156 17.3194 144.568 16.9487 143.814C16.5822 143.055 16.399 142.173 16.399 141.168C16.399 140.162 16.5822 139.276 16.9487 138.509C17.3194 137.737 17.835 137.136 18.4956 136.706C19.1603 136.271 19.9359 136.054 20.8223 136.054C21.3336 136.054 21.8386 136.139 22.3372 136.31C22.8358 136.48 23.2896 136.757 23.6987 137.141C24.1078 137.52 24.4338 138.023 24.6767 138.649C24.9196 139.276 25.041 140.047 25.041 140.963V141.602H17.4728V140.298H23.5069C23.5069 139.744 23.3961 139.25 23.1745 138.815C22.9572 138.381 22.6461 138.038 22.2413 137.786C21.8407 137.535 21.3677 137.409 20.8223 137.409C20.2214 137.409 19.7015 137.558 19.2626 137.857C18.8279 138.151 18.4934 138.534 18.2591 139.007C18.0247 139.48 17.9075 139.987 17.9075 140.528V141.398C17.9075 142.139 18.0353 142.768 18.291 143.283C18.551 143.795 18.911 144.185 19.3713 144.453C19.8315 144.717 20.3663 144.849 20.9757 144.849C21.372 144.849 21.7299 144.794 22.0495 144.683C22.3734 144.568 22.6525 144.398 22.8869 144.172C23.1213 143.942 23.3024 143.656 23.4302 143.315L24.8876 143.724C24.7342 144.219 24.4764 144.653 24.1142 145.028C23.752 145.399 23.3045 145.689 22.7718 145.898C22.2392 146.102 21.6404 146.205 20.9757 146.205ZM28.8443 132.909V146H27.3358V132.909H28.8443ZM35.7237 146.205C34.7777 146.205 33.9616 145.996 33.2756 145.578C32.5938 145.156 32.0675 144.568 31.6967 143.814C31.3303 143.055 31.147 142.173 31.147 141.168C31.147 140.162 31.3303 139.276 31.6967 138.509C32.0675 137.737 32.5831 137.136 33.2436 136.706C33.9084 136.271 34.6839 136.054 35.5703 136.054C36.0817 136.054 36.5866 136.139 37.0852 136.31C37.5838 136.48 38.0376 136.757 38.4467 137.141C38.8558 137.52 39.1818 138.023 39.4247 138.649C39.6676 139.276 39.7891 140.047 39.7891 140.963V141.602H32.2209V140.298H38.255C38.255 139.744 38.1442 139.25 37.9226 138.815C37.7053 138.381 37.3942 138.038 36.9893 137.786C36.5888 137.535 36.1158 137.409 35.5703 137.409C34.9695 137.409 34.4496 137.558 34.0107 137.857C33.576 138.151 33.2415 138.534 33.0071 139.007C32.7727 139.48 32.6555 139.987 32.6555 140.528V141.398C32.6555 142.139 32.7834 142.768 33.0391 143.283C33.299 143.795 33.6591 144.185 34.1193 144.453C34.5795 144.717 35.1143 144.849 35.7237 144.849C36.12 144.849 36.478 144.794 36.7976 144.683C37.1214 144.568 37.4006 144.398 37.6349 144.172C37.8693 143.942 38.0504 143.656 38.1783 143.315L39.6357 143.724C39.4822 144.219 39.2244 144.653 38.8622 145.028C38.5 145.399 38.0526 145.689 37.5199 145.898C36.9872 146.102 36.3885 146.205 35.7237 146.205ZM46.0724 146.205C45.152 146.205 44.3594 145.987 43.6946 145.553C43.0298 145.118 42.5185 144.519 42.1605 143.756C41.8026 142.994 41.6236 142.122 41.6236 141.142C41.6236 140.145 41.8068 139.265 42.1733 138.502C42.544 137.735 43.0597 137.136 43.7202 136.706C44.3849 136.271 45.1605 136.054 46.0469 136.054C46.7372 136.054 47.3594 136.182 47.9134 136.438C48.4673 136.693 48.9212 137.051 49.2749 137.511C49.6286 137.972 49.848 138.509 49.9332 139.122H48.4247C48.3097 138.675 48.054 138.278 47.6577 137.933C47.2656 137.584 46.7372 137.409 46.0724 137.409C45.4844 137.409 44.9688 137.562 44.5256 137.869C44.0866 138.172 43.7436 138.6 43.4964 139.154C43.2536 139.704 43.1321 140.349 43.1321 141.091C43.1321 141.849 43.2514 142.51 43.4901 143.072C43.733 143.635 44.0739 144.072 44.5128 144.383C44.956 144.694 45.4759 144.849 46.0724 144.849C46.4645 144.849 46.8203 144.781 47.1399 144.645C47.4595 144.509 47.7301 144.312 47.9517 144.057C48.1733 143.801 48.331 143.494 48.4247 143.136H49.9332C49.848 143.716 49.6371 144.238 49.3004 144.702C48.968 145.163 48.527 145.529 47.9773 145.802C47.4318 146.07 46.7969 146.205 46.0724 146.205ZM56.4084 136.182V137.46H51.3203V136.182H56.4084ZM52.8033 133.83H54.3118V143.188C54.3118 143.614 54.3736 143.933 54.4972 144.146C54.625 144.355 54.7869 144.496 54.983 144.568C55.1832 144.636 55.3942 144.67 55.6158 144.67C55.782 144.67 55.9183 144.662 56.0249 144.645C56.1314 144.624 56.2166 144.607 56.2805 144.594L56.5874 145.949C56.4851 145.987 56.3423 146.026 56.1591 146.064C55.9759 146.107 55.7436 146.128 55.4624 146.128C55.0362 146.128 54.6186 146.036 54.2095 145.853C53.8047 145.67 53.468 145.391 53.1996 145.016C52.9354 144.641 52.8033 144.168 52.8033 143.597V133.83ZM66.6293 146.23C66.0071 146.23 65.4425 146.113 64.9354 145.879C64.4283 145.64 64.0256 145.297 63.7273 144.849C63.429 144.398 63.2798 143.852 63.2798 143.213C63.2798 142.651 63.3906 142.195 63.6122 141.845C63.8338 141.491 64.13 141.214 64.5007 141.014C64.8714 140.814 65.2805 140.665 65.728 140.567C66.1797 140.464 66.6335 140.384 67.0895 140.324C67.6861 140.247 68.1697 140.19 68.5405 140.151C68.9155 140.109 69.1882 140.038 69.3587 139.94C69.5334 139.842 69.6207 139.672 69.6207 139.429V139.378C69.6207 138.747 69.4482 138.257 69.103 137.908C68.7621 137.558 68.2443 137.384 67.5497 137.384C66.8295 137.384 66.2649 137.541 65.8558 137.857C65.4467 138.172 65.1591 138.509 64.9929 138.866L63.5611 138.355C63.8168 137.759 64.1577 137.294 64.5838 136.962C65.0142 136.625 65.483 136.391 65.9901 136.259C66.5014 136.122 67.0043 136.054 67.4986 136.054C67.8139 136.054 68.1761 136.092 68.5852 136.169C68.9986 136.241 69.397 136.393 69.7805 136.623C70.1683 136.853 70.4901 137.2 70.7457 137.665C71.0014 138.129 71.1293 138.751 71.1293 139.531V146H69.6207V144.67H69.544C69.4418 144.884 69.2713 145.112 69.0327 145.354C68.794 145.597 68.4766 145.804 68.0803 145.974C67.6839 146.145 67.2003 146.23 66.6293 146.23ZM66.8594 144.875C67.456 144.875 67.9588 144.758 68.3679 144.523C68.7813 144.289 69.0923 143.987 69.3011 143.616C69.5142 143.245 69.6207 142.855 69.6207 142.446V141.065C69.5568 141.142 69.4162 141.212 69.1989 141.276C68.9858 141.336 68.7386 141.389 68.4574 141.436C68.1804 141.479 67.9098 141.517 67.6456 141.551C67.3857 141.581 67.1747 141.607 67.0128 141.628C66.6207 141.679 66.2543 141.762 65.9134 141.877C65.5767 141.988 65.304 142.156 65.0952 142.382C64.8906 142.604 64.7884 142.906 64.7884 143.29C64.7884 143.814 64.9822 144.21 65.37 144.479C65.7621 144.743 66.2585 144.875 66.8594 144.875ZM85.8997 138.381L84.5446 138.764C84.4593 138.538 84.3336 138.319 84.1674 138.106C84.0055 137.888 83.7839 137.71 83.5027 137.569C83.2214 137.428 82.8613 137.358 82.4224 137.358C81.8216 137.358 81.3208 137.496 80.9203 137.773C80.524 138.046 80.3258 138.393 80.3258 138.815C80.3258 139.19 80.4622 139.487 80.7349 139.704C81.0076 139.921 81.4338 140.102 82.0133 140.247L83.4707 140.605C84.3485 140.818 85.0027 141.144 85.4331 141.583C85.8635 142.018 86.0787 142.578 86.0787 143.264C86.0787 143.827 85.9167 144.33 85.5929 144.773C85.2733 145.216 84.8258 145.565 84.2505 145.821C83.6752 146.077 83.0062 146.205 82.2434 146.205C81.242 146.205 80.4132 145.987 79.7569 145.553C79.1007 145.118 78.6852 144.483 78.5105 143.648L79.9423 143.29C80.0787 143.818 80.3365 144.214 80.7157 144.479C81.0993 144.743 81.6 144.875 82.2179 144.875C82.921 144.875 83.4792 144.726 83.8926 144.428C84.3102 144.125 84.519 143.763 84.519 143.341C84.519 143 84.3997 142.714 84.161 142.484C83.9224 142.25 83.5559 142.075 83.0616 141.96L81.4252 141.577C80.5261 141.364 79.8656 141.033 79.4437 140.586C79.0261 140.134 78.8173 139.57 78.8173 138.892C78.8173 138.338 78.9728 137.848 79.2839 137.422C79.5993 136.996 80.0275 136.661 80.5687 136.418C81.1142 136.175 81.7321 136.054 82.4224 136.054C83.394 136.054 84.1568 136.267 84.7108 136.693C85.269 137.119 85.6653 137.682 85.8997 138.381ZM92.4659 146.205C91.5199 146.205 90.7038 145.996 90.0178 145.578C89.3359 145.156 88.8097 144.568 88.4389 143.814C88.0724 143.055 87.8892 142.173 87.8892 141.168C87.8892 140.162 88.0724 139.276 88.4389 138.509C88.8097 137.737 89.3253 137.136 89.9858 136.706C90.6506 136.271 91.4261 136.054 92.3125 136.054C92.8239 136.054 93.3288 136.139 93.8274 136.31C94.326 136.48 94.7798 136.757 95.1889 137.141C95.598 137.52 95.924 138.023 96.1669 138.649C96.4098 139.276 96.5312 140.047 96.5312 140.963V141.602H88.9631V140.298H94.9972C94.9972 139.744 94.8864 139.25 94.6648 138.815C94.4474 138.381 94.1364 138.038 93.7315 137.786C93.331 137.535 92.858 137.409 92.3125 137.409C91.7116 137.409 91.1918 137.558 90.7528 137.857C90.3182 138.151 89.9837 138.534 89.7493 139.007C89.5149 139.48 89.3977 139.987 89.3977 140.528V141.398C89.3977 142.139 89.5256 142.768 89.7812 143.283C90.0412 143.795 90.4013 144.185 90.8615 144.453C91.3217 144.717 91.8565 144.849 92.4659 144.849C92.8622 144.849 93.2202 144.794 93.5398 144.683C93.8636 144.568 94.1428 144.398 94.3771 144.172C94.6115 143.942 94.7926 143.656 94.9205 143.315L96.3778 143.724C96.2244 144.219 95.9666 144.653 95.6044 145.028C95.2422 145.399 94.7947 145.689 94.2621 145.898C93.7294 146.102 93.1307 146.205 92.4659 146.205ZM105.781 138.381L104.425 138.764C104.34 138.538 104.214 138.319 104.048 138.106C103.886 137.888 103.665 137.71 103.384 137.569C103.102 137.428 102.742 137.358 102.303 137.358C101.702 137.358 101.202 137.496 100.801 137.773C100.405 138.046 100.207 138.393 100.207 138.815C100.207 139.19 100.343 139.487 100.616 139.704C100.888 139.921 101.315 140.102 101.894 140.247L103.352 140.605C104.229 140.818 104.884 141.144 105.314 141.583C105.744 142.018 105.96 142.578 105.96 143.264C105.96 143.827 105.798 144.33 105.474 144.773C105.154 145.216 104.707 145.565 104.131 145.821C103.556 146.077 102.887 146.205 102.124 146.205C101.123 146.205 100.294 145.987 99.6378 145.553C98.9815 145.118 98.5661 144.483 98.3913 143.648L99.8232 143.29C99.9595 143.818 100.217 144.214 100.597 144.479C100.98 144.743 101.481 144.875 102.099 144.875C102.802 144.875 103.36 144.726 103.773 144.428C104.191 144.125 104.4 143.763 104.4 143.341C104.4 143 104.281 142.714 104.042 142.484C103.803 142.25 103.437 142.075 102.942 141.96L101.306 141.577C100.407 141.364 99.7464 141.033 99.3246 140.586C98.907 140.134 98.6982 139.57 98.6982 138.892C98.6982 138.338 98.8537 137.848 99.1648 137.422C99.4801 136.996 99.9084 136.661 100.45 136.418C100.995 136.175 101.613 136.054 102.303 136.054C103.275 136.054 104.038 136.267 104.592 136.693C105.15 137.119 105.546 137.682 105.781 138.381ZM115.185 138.381L113.83 138.764C113.744 138.538 113.619 138.319 113.453 138.106C113.291 137.888 113.069 137.71 112.788 137.569C112.507 137.428 112.146 137.358 111.708 137.358C111.107 137.358 110.606 137.496 110.205 137.773C109.809 138.046 109.611 138.393 109.611 138.815C109.611 139.19 109.747 139.487 110.02 139.704C110.293 139.921 110.719 140.102 111.298 140.247L112.756 140.605C113.634 140.818 114.288 141.144 114.718 141.583C115.149 142.018 115.364 142.578 115.364 143.264C115.364 143.827 115.202 144.33 114.878 144.773C114.558 145.216 114.111 145.565 113.536 145.821C112.96 146.077 112.291 146.205 111.529 146.205C110.527 146.205 109.698 145.987 109.042 145.553C108.386 145.118 107.97 144.483 107.796 143.648L109.227 143.29C109.364 143.818 109.622 144.214 110.001 144.479C110.384 144.743 110.885 144.875 111.503 144.875C112.206 144.875 112.764 144.726 113.178 144.428C113.595 144.125 113.804 143.763 113.804 143.341C113.804 143 113.685 142.714 113.446 142.484C113.208 142.25 112.841 142.075 112.347 141.96L110.71 141.577C109.811 141.364 109.151 141.033 108.729 140.586C108.311 140.134 108.102 139.57 108.102 138.892C108.102 138.338 108.258 137.848 108.569 137.422C108.884 136.996 109.313 136.661 109.854 136.418C110.399 136.175 111.017 136.054 111.708 136.054C112.679 136.054 113.442 136.267 113.996 136.693C114.554 137.119 114.95 137.682 115.185 138.381ZM117.635 146V136.182H119.143V146H117.635ZM118.402 134.545C118.108 134.545 117.854 134.445 117.641 134.245C117.432 134.045 117.328 133.804 117.328 133.523C117.328 133.241 117.432 133.001 117.641 132.8C117.854 132.6 118.108 132.5 118.402 132.5C118.696 132.5 118.947 132.6 119.156 132.8C119.369 133.001 119.475 133.241 119.475 133.523C119.475 133.804 119.369 134.045 119.156 134.245C118.947 134.445 118.696 134.545 118.402 134.545ZM125.895 146.205C125.008 146.205 124.231 145.994 123.562 145.572C122.897 145.15 122.377 144.56 122.002 143.801C121.631 143.043 121.446 142.156 121.446 141.142C121.446 140.119 121.631 139.227 122.002 138.464C122.377 137.701 122.897 137.109 123.562 136.687C124.231 136.265 125.008 136.054 125.895 136.054C126.781 136.054 127.557 136.265 128.221 136.687C128.89 137.109 129.41 137.701 129.781 138.464C130.156 139.227 130.344 140.119 130.344 141.142C130.344 142.156 130.156 143.043 129.781 143.801C129.41 144.56 128.89 145.15 128.221 145.572C127.557 145.994 126.781 146.205 125.895 146.205ZM125.895 144.849C126.568 144.849 127.122 144.677 127.557 144.332C127.991 143.987 128.313 143.533 128.522 142.97C128.731 142.408 128.835 141.798 128.835 141.142C128.835 140.486 128.731 139.874 128.522 139.308C128.313 138.741 127.991 138.283 127.557 137.933C127.122 137.584 126.568 137.409 125.895 137.409C125.221 137.409 124.667 137.584 124.233 137.933C123.798 138.283 123.476 138.741 123.268 139.308C123.059 139.874 122.954 140.486 122.954 141.142C122.954 141.798 123.059 142.408 123.268 142.97C123.476 143.533 123.798 143.987 124.233 144.332C124.667 144.677 125.221 144.849 125.895 144.849ZM134.155 140.094V146H132.646V136.182H134.104V137.716H134.232C134.462 137.217 134.811 136.817 135.28 136.514C135.749 136.207 136.354 136.054 137.095 136.054C137.76 136.054 138.342 136.19 138.84 136.463C139.339 136.732 139.727 137.141 140.004 137.69C140.281 138.236 140.419 138.926 140.419 139.761V146H138.911V139.864C138.911 139.092 138.71 138.491 138.31 138.061C137.909 137.626 137.359 137.409 136.661 137.409C136.179 137.409 135.749 137.513 135.369 137.722C134.994 137.931 134.698 138.236 134.481 138.636C134.263 139.037 134.155 139.523 134.155 140.094ZM152.508 136.182V137.46H147.42V136.182H152.508ZM148.903 133.83H150.411V143.188C150.411 143.614 150.473 143.933 150.597 144.146C150.725 144.355 150.887 144.496 151.083 144.568C151.283 144.636 151.494 144.67 151.715 144.67C151.882 144.67 152.018 144.662 152.124 144.645C152.231 144.624 152.316 144.607 152.38 144.594L152.687 145.949C152.585 145.987 152.442 146.026 152.259 146.064C152.075 146.107 151.843 146.128 151.562 146.128C151.136 146.128 150.718 146.036 150.309 145.853C149.904 145.67 149.568 145.391 149.299 145.016C149.035 144.641 148.903 144.168 148.903 143.597V133.83ZM158.66 146.205C157.774 146.205 156.996 145.994 156.327 145.572C155.662 145.15 155.143 144.56 154.768 143.801C154.397 143.043 154.211 142.156 154.211 141.142C154.211 140.119 154.397 139.227 154.768 138.464C155.143 137.701 155.662 137.109 156.327 136.687C156.996 136.265 157.774 136.054 158.66 136.054C159.547 136.054 160.322 136.265 160.987 136.687C161.656 137.109 162.176 137.701 162.547 138.464C162.922 139.227 163.109 140.119 163.109 141.142C163.109 142.156 162.922 143.043 162.547 143.801C162.176 144.56 161.656 145.15 160.987 145.572C160.322 145.994 159.547 146.205 158.66 146.205ZM158.66 144.849C159.334 144.849 159.888 144.677 160.322 144.332C160.757 143.987 161.079 143.533 161.287 142.97C161.496 142.408 161.601 141.798 161.601 141.142C161.601 140.486 161.496 139.874 161.287 139.308C161.079 138.741 160.757 138.283 160.322 137.933C159.888 137.584 159.334 137.409 158.66 137.409C157.987 137.409 157.433 137.584 156.998 137.933C156.564 138.283 156.242 138.741 156.033 139.308C155.824 139.874 155.72 140.486 155.72 141.142C155.72 141.798 155.824 142.408 156.033 142.97C156.242 143.533 156.564 143.987 156.998 144.332C157.433 144.677 157.987 144.849 158.66 144.849ZM174.438 149.886C173.709 149.886 173.082 149.793 172.558 149.605C172.034 149.422 171.597 149.179 171.248 148.876C170.903 148.578 170.628 148.259 170.423 147.918L171.625 147.074C171.761 147.253 171.934 147.457 172.143 147.688C172.352 147.922 172.637 148.124 172.999 148.295C173.366 148.469 173.845 148.557 174.438 148.557C175.23 148.557 175.884 148.365 176.4 147.982C176.915 147.598 177.173 146.997 177.173 146.179V144.185H177.045C176.935 144.364 176.777 144.585 176.572 144.849C176.372 145.109 176.082 145.342 175.703 145.546C175.328 145.746 174.821 145.847 174.182 145.847C173.389 145.847 172.678 145.659 172.047 145.284C171.42 144.909 170.924 144.364 170.558 143.648C170.195 142.932 170.014 142.062 170.014 141.04C170.014 140.034 170.191 139.158 170.545 138.413C170.898 137.663 171.391 137.083 172.021 136.674C172.652 136.261 173.381 136.054 174.207 136.054C174.847 136.054 175.354 136.161 175.729 136.374C176.108 136.582 176.398 136.821 176.598 137.089C176.803 137.354 176.96 137.571 177.071 137.741H177.224V136.182H178.682V146.281C178.682 147.125 178.49 147.811 178.107 148.339C177.727 148.872 177.216 149.262 176.572 149.509C175.933 149.761 175.222 149.886 174.438 149.886ZM174.386 144.491C174.991 144.491 175.503 144.353 175.92 144.076C176.338 143.799 176.656 143.401 176.873 142.881C177.09 142.361 177.199 141.739 177.199 141.014C177.199 140.307 177.092 139.683 176.879 139.141C176.666 138.6 176.351 138.176 175.933 137.869C175.516 137.562 175 137.409 174.386 137.409C173.747 137.409 173.214 137.571 172.788 137.895C172.366 138.219 172.049 138.653 171.836 139.199C171.627 139.744 171.523 140.349 171.523 141.014C171.523 141.696 171.629 142.299 171.842 142.823C172.06 143.343 172.379 143.752 172.801 144.05C173.227 144.344 173.756 144.491 174.386 144.491ZM185.56 146.205C184.614 146.205 183.798 145.996 183.112 145.578C182.43 145.156 181.903 144.568 181.533 143.814C181.166 143.055 180.983 142.173 180.983 141.168C180.983 140.162 181.166 139.276 181.533 138.509C181.903 137.737 182.419 137.136 183.08 136.706C183.744 136.271 184.52 136.054 185.406 136.054C185.918 136.054 186.423 136.139 186.921 136.31C187.42 136.48 187.874 136.757 188.283 137.141C188.692 137.52 189.018 138.023 189.261 138.649C189.504 139.276 189.625 140.047 189.625 140.963V141.602H182.057V140.298H188.091C188.091 139.744 187.98 139.25 187.759 138.815C187.541 138.381 187.23 138.038 186.825 137.786C186.425 137.535 185.952 137.409 185.406 137.409C184.805 137.409 184.286 137.558 183.847 137.857C183.412 138.151 183.077 138.534 182.843 139.007C182.609 139.48 182.491 139.987 182.491 140.528V141.398C182.491 142.139 182.619 142.768 182.875 143.283C183.135 143.795 183.495 144.185 183.955 144.453C184.415 144.717 184.95 144.849 185.56 144.849C185.956 144.849 186.314 144.794 186.634 144.683C186.957 144.568 187.237 144.398 187.471 144.172C187.705 143.942 187.886 143.656 188.014 143.315L189.472 143.724C189.318 144.219 189.06 144.653 188.698 145.028C188.336 145.399 187.888 145.689 187.356 145.898C186.823 146.102 186.224 146.205 185.56 146.205ZM196.19 136.182V137.46H191.102V136.182H196.19ZM192.585 133.83H194.093V143.188C194.093 143.614 194.155 143.933 194.278 144.146C194.406 144.355 194.568 144.496 194.764 144.568C194.964 144.636 195.175 144.67 195.397 144.67C195.563 144.67 195.7 144.662 195.806 144.645C195.913 144.624 195.998 144.607 196.062 144.594L196.369 145.949C196.266 145.987 196.124 146.026 195.94 146.064C195.757 146.107 195.525 146.128 195.244 146.128C194.817 146.128 194.4 146.036 193.991 145.853C193.586 145.67 193.249 145.391 192.981 145.016C192.717 144.641 192.585 144.168 192.585 143.597V133.83ZM210.476 138.381L209.121 138.764C209.036 138.538 208.91 138.319 208.744 138.106C208.582 137.888 208.36 137.71 208.079 137.569C207.798 137.428 207.438 137.358 206.999 137.358C206.398 137.358 205.897 137.496 205.496 137.773C205.1 138.046 204.902 138.393 204.902 138.815C204.902 139.19 205.038 139.487 205.311 139.704C205.584 139.921 206.01 140.102 206.589 140.247L208.047 140.605C208.925 140.818 209.579 141.144 210.009 141.583C210.44 142.018 210.655 142.578 210.655 143.264C210.655 143.827 210.493 144.33 210.169 144.773C209.849 145.216 209.402 145.565 208.827 145.821C208.251 146.077 207.582 146.205 206.82 146.205C205.818 146.205 204.989 145.987 204.333 145.553C203.677 145.118 203.261 144.483 203.087 143.648L204.518 143.29C204.655 143.818 204.913 144.214 205.292 144.479C205.675 144.743 206.176 144.875 206.794 144.875C207.497 144.875 208.055 144.726 208.469 144.428C208.886 144.125 209.095 143.763 209.095 143.341C209.095 143 208.976 142.714 208.737 142.484C208.499 142.25 208.132 142.075 207.638 141.96L206.001 141.577C205.102 141.364 204.442 141.033 204.02 140.586C203.602 140.134 203.393 139.57 203.393 138.892C203.393 138.338 203.549 137.848 203.86 137.422C204.175 136.996 204.604 136.661 205.145 136.418C205.69 136.175 206.308 136.054 206.999 136.054C207.97 136.054 208.733 136.267 209.287 136.693C209.845 137.119 210.241 137.682 210.476 138.381ZM217.195 136.182V137.46H212.107V136.182H217.195ZM213.59 133.83H215.099V143.188C215.099 143.614 215.161 143.933 215.284 144.146C215.412 144.355 215.574 144.496 215.77 144.568C215.97 144.636 216.181 144.67 216.403 144.67C216.569 144.67 216.705 144.662 216.812 144.645C216.919 144.624 217.004 144.607 217.068 144.594L217.374 145.949C217.272 145.987 217.129 146.026 216.946 146.064C216.763 146.107 216.531 146.128 216.249 146.128C215.823 146.128 215.406 146.036 214.997 145.853C214.592 145.67 214.255 145.391 213.987 145.016C213.722 144.641 213.59 144.168 213.59 143.597V133.83ZM222.354 146.23C221.732 146.23 221.167 146.113 220.66 145.879C220.153 145.64 219.75 145.297 219.452 144.849C219.154 144.398 219.004 143.852 219.004 143.213C219.004 142.651 219.115 142.195 219.337 141.845C219.558 141.491 219.855 141.214 220.225 141.014C220.596 140.814 221.005 140.665 221.453 140.567C221.904 140.464 222.358 140.384 222.814 140.324C223.411 140.247 223.894 140.19 224.265 140.151C224.64 140.109 224.913 140.038 225.083 139.94C225.258 139.842 225.345 139.672 225.345 139.429V139.378C225.345 138.747 225.173 138.257 224.828 137.908C224.487 137.558 223.969 137.384 223.274 137.384C222.554 137.384 221.99 137.541 221.58 137.857C221.171 138.172 220.884 138.509 220.718 138.866L219.286 138.355C219.541 137.759 219.882 137.294 220.308 136.962C220.739 136.625 221.208 136.391 221.715 136.259C222.226 136.122 222.729 136.054 223.223 136.054C223.539 136.054 223.901 136.092 224.31 136.169C224.723 136.241 225.122 136.393 225.505 136.623C225.893 136.853 226.215 137.2 226.47 137.665C226.726 138.129 226.854 138.751 226.854 139.531V146H225.345V144.67H225.269C225.166 144.884 224.996 145.112 224.757 145.354C224.519 145.597 224.201 145.804 223.805 145.974C223.409 146.145 222.925 146.23 222.354 146.23ZM222.584 144.875C223.181 144.875 223.683 144.758 224.093 144.523C224.506 144.289 224.817 143.987 225.026 143.616C225.239 143.245 225.345 142.855 225.345 142.446V141.065C225.281 141.142 225.141 141.212 224.923 141.276C224.71 141.336 224.463 141.389 224.182 141.436C223.905 141.479 223.634 141.517 223.37 141.551C223.11 141.581 222.899 141.607 222.737 141.628C222.345 141.679 221.979 141.762 221.638 141.877C221.301 141.988 221.029 142.156 220.82 142.382C220.615 142.604 220.513 142.906 220.513 143.29C220.513 143.814 220.707 144.21 221.095 144.479C221.487 144.743 221.983 144.875 222.584 144.875ZM229.607 146V136.182H231.065V137.665H231.167C231.346 137.179 231.67 136.785 232.138 136.482C232.607 136.18 233.136 136.028 233.724 136.028C233.835 136.028 233.973 136.031 234.139 136.035C234.305 136.039 234.431 136.045 234.516 136.054V137.588C234.465 137.575 234.348 137.556 234.165 137.531C233.986 137.501 233.796 137.486 233.596 137.486C233.119 137.486 232.692 137.586 232.317 137.786C231.947 137.982 231.653 138.255 231.435 138.604C231.222 138.95 231.116 139.344 231.116 139.787V146H229.607ZM241.19 136.182V137.46H236.102V136.182H241.19ZM237.585 133.83H239.093V143.188C239.093 143.614 239.155 143.933 239.278 144.146C239.406 144.355 239.568 144.496 239.764 144.568C239.964 144.636 240.175 144.67 240.397 144.67C240.563 144.67 240.7 144.662 240.806 144.645C240.913 144.624 240.998 144.607 241.062 144.594L241.369 145.949C241.266 145.987 241.124 146.026 240.94 146.064C240.757 146.107 240.525 146.128 240.244 146.128C239.817 146.128 239.4 146.036 238.991 145.853C238.586 145.67 238.249 145.391 237.981 145.016C237.717 144.641 237.585 144.168 237.585 143.597V133.83ZM247.47 146.205C246.524 146.205 245.708 145.996 245.022 145.578C244.34 145.156 243.814 144.568 243.443 143.814C243.076 143.055 242.893 142.173 242.893 141.168C242.893 140.162 243.076 139.276 243.443 138.509C243.814 137.737 244.329 137.136 244.99 136.706C245.654 136.271 246.43 136.054 247.316 136.054C247.828 136.054 248.333 136.139 248.831 136.31C249.33 136.48 249.784 136.757 250.193 137.141C250.602 137.52 250.928 138.023 251.171 138.649C251.414 139.276 251.535 140.047 251.535 140.963V141.602H243.967V140.298H250.001C250.001 139.744 249.89 139.25 249.669 138.815C249.451 138.381 249.14 138.038 248.735 137.786C248.335 137.535 247.862 137.409 247.316 137.409C246.716 137.409 246.196 137.558 245.757 137.857C245.322 138.151 244.988 138.534 244.753 139.007C244.519 139.48 244.402 139.987 244.402 140.528V141.398C244.402 142.139 244.529 142.768 244.785 143.283C245.045 143.795 245.405 144.185 245.865 144.453C246.326 144.717 246.86 144.849 247.47 144.849C247.866 144.849 248.224 144.794 248.544 144.683C248.868 144.568 249.147 144.398 249.381 144.172C249.615 143.942 249.797 143.656 249.924 143.315L251.382 143.724C251.228 144.219 250.971 144.653 250.608 145.028C250.246 145.399 249.799 145.689 249.266 145.898C248.733 146.102 248.135 146.205 247.47 146.205ZM257.537 146.205C256.719 146.205 255.997 145.998 255.37 145.585C254.744 145.167 254.254 144.579 253.9 143.82C253.547 143.058 253.37 142.156 253.37 141.116C253.37 140.085 253.547 139.19 253.9 138.432C254.254 137.673 254.746 137.087 255.377 136.674C256.007 136.261 256.736 136.054 257.563 136.054C258.202 136.054 258.707 136.161 259.078 136.374C259.453 136.582 259.738 136.821 259.934 137.089C260.135 137.354 260.29 137.571 260.401 137.741H260.529V132.909H262.037V146H260.58V144.491H260.401C260.29 144.67 260.132 144.896 259.928 145.169C259.723 145.437 259.431 145.678 259.052 145.891C258.673 146.1 258.168 146.205 257.537 146.205ZM257.742 144.849C258.347 144.849 258.858 144.692 259.276 144.376C259.694 144.057 260.011 143.616 260.228 143.053C260.446 142.487 260.554 141.832 260.554 141.091C260.554 140.358 260.448 139.717 260.235 139.167C260.022 138.613 259.706 138.183 259.289 137.876C258.871 137.565 258.355 137.409 257.742 137.409C257.103 137.409 256.57 137.573 256.144 137.901C255.722 138.225 255.404 138.666 255.191 139.224C254.983 139.778 254.878 140.401 254.878 141.091C254.878 141.79 254.985 142.425 255.198 142.996C255.415 143.562 255.735 144.014 256.157 144.351C256.583 144.683 257.111 144.849 257.742 144.849Z" fill="#3C8C71"/>
<path d="M179.27 4.99805H142.899C132.493 4.99805 124.057 13.434 124.057 23.8403V26.9983V59.1819C124.057 67.4439 130.754 74.1416 139.016 74.1416H183.713L215.121 74.1416C215.629 74.1416 215.777 73.4493 215.314 73.241L205.994 69.046C201.197 66.8871 198.113 62.1159 198.113 56.8557V39.5698V23.8403C198.113 13.434 189.677 4.99805 179.27 4.99805Z" fill="#3C8C71" stroke="#3C8C71" stroke-width="9" stroke-linecap="square"/>
<path d="M92.5362 29.5898H128.908C139.314 29.5898 147.75 38.0258 147.75 48.4321V51.5901V83.7737C147.75 92.0357 141.052 98.7334 132.79 98.7334H88.0937L56.6856 98.7334C56.1781 98.7334 56.0295 98.0411 56.4923 97.8328L65.8125 93.6378C70.6092 91.4789 73.6939 86.7077 73.6939 81.4475V64.1616V48.4321C73.6939 38.0258 82.1299 29.5898 92.5362 29.5898Z" stroke="#F3F9F6" stroke-width="21.2378" stroke-linecap="square"/>
<path d="M92.5362 29.5898H128.908C139.314 29.5898 147.75 38.0258 147.75 48.4321V51.5901V83.7737C147.75 92.0357 141.052 98.7334 132.79 98.7334H88.0937L56.6856 98.7334C56.1781 98.7334 56.0295 98.0411 56.4923 97.8328L65.8125 93.6378C70.6092 91.4789 73.6939 86.7077 73.6939 81.4475V64.1616V48.4321C73.6939 38.0258 82.1299 29.5898 92.5362 29.5898Z" fill="#F3F9F6" stroke="#3C8C71" stroke-width="10" stroke-linecap="square"/>
<path d="M40.9786 103.5C43.4639 103.5 45.4786 101.485 45.4786 99C45.4786 96.5147 43.4639 94.5 40.9786 94.5V103.5ZM21.0996 94.5H16.5996V103.5H21.0996V94.5ZM40.9786 94.5H21.0996V103.5H40.9786V94.5Z" fill="#3C8C71"/>
<path d="M6.09963 103.5H10.5996V94.5H6.09963V103.5ZM4.5 94.5C2.01472 94.5 0 96.5147 0 99C0 101.485 2.01472 103.5 4.5 103.5V94.5ZM6.09963 94.5H4.5V103.5H6.09963V94.5Z" fill="#3C8C71"/>
<path d="M230.922 79.5C228.437 79.5 226.422 77.4853 226.422 75C226.422 72.5147 228.437 70.5 230.922 70.5V79.5ZM250.801 70.5H255.301V79.5H250.801V70.5ZM230.922 70.5H250.801V79.5H230.922V70.5Z" fill="#3C8C71"/>
<path d="M265.801 79.5H261.301V70.5H265.801V79.5ZM267.4 70.5C269.886 70.5 271.9 72.5147 271.9 75C271.9 77.4853 269.886 79.5 267.4 79.5V70.5ZM265.801 70.5H267.4V79.5H265.801V70.5Z" fill="#3C8C71"/>
</svg>
